<?xml version="1.0" encoding="utf-8"?>
<!-- Generator: Adobe Illustrator 27.0.1, SVG Export Plug-In . SVG Version: 6.00 Build 0)  -->
<svg version="1.1" id="Capa_1" xmlns="http://www.w3.org/2000/svg" xmlns:xlink="http://www.w3.org/1999/xlink" x="0px" y="0px"
	 viewBox="0 0 595.28 841.89" style="enable-background:new 0 0 595.28 841.89;" xml:space="preserve">
<style type="text/css">
	.st0{fill:none;stroke:#3a3636;stroke-width:3;stroke-miterlimit:10;}
</style>
<path class="st0" d="M155.88,620.4"/>
<path class="st0" d="M154.2,643.92"/>
<path class="st0" d="M183.73,625.88"/>
<path class="st0" d="M170.91,642.88"/>
<path class="st0" d="M181.17,656.13"/>
<path class="st0" d="M197.01,644.13"/>
<path class="st0" d="M189.09,670.92"/>
<path class="st0" d="M204.66,667.29"/>
<path class="st0" d="M202.4,683.96"/>
<path class="st0" d="M159.98,682.88"/>
<path class="st0" d="M154.02,686.94"/>
<path class="st0" d="M138.54,686.74c-10.54-1.43-18.66-10.47-18.66-21.4v0c0-11.93,9.67-21.6,21.6-21.6h31.14
	c11.93,0,21.6,9.67,21.6,21.6v0c0,11.93-9.67,21.6-21.6,21.6h-18.6"/>
<path class="st0" d="M138.54,686.74"/>
<line class="st0" x1="162.79" y1="675.67" x2="162.59" y2="687.65"/>
<line class="st0" x1="155.75" y1="652.02" x2="155.52" y2="685.5"/>
<path class="st0" d="M148.51,680.82"/>
<line class="st0" x1="169.14" y1="679.88" x2="169.03" y2="685.87"/>
<line class="st0" x1="175.55" y1="675.44" x2="175.36" y2="686.5"/>
</svg>
