<?xml version="1.0" encoding="utf-8"?>
<!-- Generator: Adobe Illustrator 27.0.1, SVG Export Plug-In . SVG Version: 6.00 Build 0)  -->
<svg version="1.1" id="Capa_1" xmlns="http://www.w3.org/2000/svg" xmlns:xlink="http://www.w3.org/1999/xlink" x="0px" y="0px"
	 viewBox="0 0 370 370" style="enable-background:new 0 0 370 370;" xml:space="preserve">
<style type="text/css">
	.st0{fill:none;stroke:#73CF60;stroke-width:13.5;stroke-miterlimit:10;}
	.st1{fill:none;stroke:#238A3D;stroke-width:2.9952;stroke-miterlimit:10;}
	.st2{fill:none;stroke:#73CF60;stroke-width:13.4786;stroke-miterlimit:10;}
	.st3{fill:none;stroke:#49BBBC;stroke-width:30;stroke-miterlimit:10;}
</style>
<path class="st0" d="M199,155.9"/>
<path class="st0" d="M141.3,232.4"/>
<path class="st1" d="M202.1,109.8"/>
<path class="st2" d="M172.1,88.9"/>
<path class="st2" d="M293.5,143.6"/>
<path class="st2" d="M364.8,89.8"/>
<path class="st2" d="M329.1,210"/>
<path class="st2" d="M366.2,193.7"/>
<path class="st2" d="M366.1,268.4"/>
<path class="st2" d="M198.1,263.6"/>
<path class="st2" d="M171.4,281.9"/>
<path class="st2" d="M101.7,281"/>
<path class="st3" d="M179.1,125.3l-1,150.2c0,0,0,2.6,0,6.4c19.9,0,77,0,77,0c53.7,0,97.2-43.4,97.2-96.9s-43.5-96.9-97.2-96.9
	H114.8c-53.7,0-97.2,43.4-97.2,96.9c0,53.6,43.5,96.9,97.4,96.9c0.7-28.3,2.2-88.4,2.2-88.4"/>
<path class="st2" d="M146.5,254.4"/>
</svg>
